<?xml version="1.0" encoding="UTF-8" standalone="no" ?>
<!DOCTYPE svg PUBLIC "-//W3C//DTD SVG 1.1//EN" "http://www.w3.org/Graphics/SVG/1.1/DTD/svg11.dtd">
<svg xmlns="http://www.w3.org/2000/svg" xmlns:xlink="http://www.w3.org/1999/xlink" version="1.1" width="1080" height="1080" viewBox="0 0 1080 1080" xml:space="preserve">
<desc>Created with Fabric.js 5.2.4</desc>
<defs>
</defs>
<g transform="matrix(1 0 0 1 540 540)" id="5b9291d8-a5f7-4947-a8f1-14db1924b1af"  >
<rect style="stroke: none; stroke-width: 1; stroke-dasharray: none; stroke-linecap: butt; stroke-dashoffset: 0; stroke-linejoin: miter; stroke-miterlimit: 4; fill: rgb(255,255,255); fill-rule: nonzero; opacity: 1; visibility: hidden;" vector-effect="non-scaling-stroke"  x="-540" y="-540" rx="0" ry="0" width="1080" height="1080" />
</g>
<g transform="matrix(1 0 0 1 540 540)" id="53db37f9-083b-4c72-b41c-2ec3c105b122"  >
</g>
<g transform="matrix(17.7 0 0 17.7 540 540)"  >
<g style=""   >
		<g transform="matrix(1 0 0 1 0 -6)"  >
<path style="stroke: none; stroke-width: 1; stroke-dasharray: none; stroke-linecap: butt; stroke-dashoffset: 0; stroke-linejoin: miter; stroke-miterlimit: 4; fill: rgb(255,255,255); fill-rule: evenodd; opacity: 1;" vector-effect="non-scaling-stroke"  transform=" translate(-30.5, -18.5)" d="M 0.5 2 C 0.5 1.17157 1.17157 0.5 2 0.5 L 13.6362 0.5 C 14.3878 0.5 15.0234 1.05632 15.123 1.80135 L 16.431 11.5916 L 59 11.5916 C 59.5122 11.5916 59.989 11.8529 60.2645 12.2847 C 60.54 12.7165 60.5762 13.2591 60.3604 13.7236 L 50.182 35.632 C 49.9361 36.1614 49.4054 36.5 48.8217 36.5 L 18.0453 36.5 C 17.2937 36.5 16.6581 35.9437 16.5585 35.1987 L 12.3233 3.5 L 2 3.5 C 1.17157 3.5 0.5 2.82843 0.5 2 Z M 16.8319 14.5916 L 19.3582 33.5 L 47.8646 33.5 L 56.6491 14.5916 L 16.8319 14.5916 Z" stroke-linecap="round" />
</g>
		<g transform="matrix(1 0 0 1 7.5 -0.5)"  >
<path style="stroke: none; stroke-width: 1; stroke-dasharray: none; stroke-linecap: butt; stroke-dashoffset: 0; stroke-linejoin: miter; stroke-miterlimit: 4; fill: rgb(255,255,255); fill-rule: nonzero; opacity: 1;" vector-effect="non-scaling-stroke"  transform=" translate(-38, -24)" d="M 18.589 35 L 49.7083 35 L 60 13 L 16 13 L 18.589 35 Z" stroke-linecap="round" />
</g>
		<g transform="matrix(1 0 0 1 -9.5 20.5)"  >
<path style="stroke: none; stroke-width: 1; stroke-dasharray: none; stroke-linecap: butt; stroke-dashoffset: 0; stroke-linejoin: miter; stroke-miterlimit: 4; fill: rgb(255,255,255); fill-rule: nonzero; opacity: 1;" vector-effect="non-scaling-stroke"  transform=" translate(-21, -45)" d="M 21 49 C 23.2091 49 25 47.2091 25 45 C 25 42.7909 23.2091 41 21 41 C 18.7909 41 17 42.7909 17 45 C 17 47.2091 18.7909 49 21 49 Z" stroke-linecap="round" />
</g>
		<g transform="matrix(1 0 0 1 14.5 20.5)"  >
<path style="stroke: none; stroke-width: 1; stroke-dasharray: none; stroke-linecap: butt; stroke-dashoffset: 0; stroke-linejoin: miter; stroke-miterlimit: 4; fill: rgb(255,255,255); fill-rule: nonzero; opacity: 1;" vector-effect="non-scaling-stroke"  transform=" translate(-45, -45)" d="M 45 49 C 47.2091 49 49 47.2091 49 45 C 49 42.7909 47.2091 41 45 41 C 42.7909 41 41 42.7909 41 45 C 41 47.2091 42.7909 49 45 49 Z" stroke-linecap="round" />
</g>
</g>
</g>
</svg>